HIERARCHY
ROOT Hips
{
    OFFSET   0.000000   0.000000   0.000000
    CHANNELS 6 Xposition Yposition Zposition Zrotation Xrotation Yrotation
    JOINT Chest
    {
        OFFSET   0.000000   8.007240   0.000000
        CHANNELS 3 Zrotation Xrotation Yrotation
        JOINT Chest2
        {
            OFFSET   0.000000  22.077100   0.000000
            CHANNELS 3 Zrotation Xrotation Yrotation
            JOINT Neck
            {
                OFFSET   0.000000  23.254800   0.000000
                CHANNELS 3 Zrotation Xrotation Yrotation
                JOINT Head
                {
                    OFFSET   0.000000  14.370000   1.956600
                    CHANNELS 3 Zrotation Xrotation Yrotation
                    End Site
                    {
                        OFFSET   0.000000  19.566000   0.000000
                    }
                }
            }
            JOINT LeftCollar
            {
                OFFSET   3.911900  19.017000  -0.467064
                CHANNELS 3 Zrotation Xrotation Yrotation
                JOINT LeftShoulder
                {
                    OFFSET  10.383700   0.000000   0.000000
                    CHANNELS 3 Zrotation Xrotation Yrotation
                    JOINT LeftElbow
                    {
                        OFFSET  26.662100   0.001476   0.000517
                        CHANNELS 3 Zrotation Xrotation Yrotation
                        JOINT LeftWrist
                        {
                            OFFSET  28.869000  -0.000025  -0.000106
                            CHANNELS 3 Zrotation Xrotation Yrotation
                            JOINT LeftFinger0
                            {
                                OFFSET   2.044660  -2.323460   3.252850
                                CHANNELS 3 Zrotation Xrotation Yrotation
                                JOINT LeftFinger01
                                {
                                    OFFSET   3.088130   0.000000   0.000000
                                    CHANNELS 3 Zrotation Xrotation Yrotation
                                    JOINT LeftFinger02
                                    {
                                        OFFSET   2.639460   0.000000   0.000000
                                        CHANNELS 3 Zrotation Xrotation Yrotation
                                        End Site
                                        {
                                            OFFSET   2.582190   0.000000   0.000000
                                        }
                                    }
                                }
                            }
                            JOINT LeftFinger1
                            {
                                OFFSET   8.364480   0.000000   3.252850
                                CHANNELS 3 Zrotation Xrotation Yrotation
                                JOINT LeftFinger11
                                {
                                    OFFSET   4.646930   0.000000   0.000000
                                    CHANNELS 3 Zrotation Xrotation Yrotation
                                    JOINT LeftFinger12
                                    {
                                        OFFSET   2.323460   0.000000   0.000000
                                        CHANNELS 3 Zrotation Xrotation Yrotation
                                        End Site
                                        {
                                            OFFSET   2.273050   0.000000   0.000000
                                        }
                                    }
                                }
                            }
                            JOINT LeftFinger2
                            {
                                OFFSET   8.364490   0.000015   1.078090
                                CHANNELS 3 Zrotation Xrotation Yrotation
                                JOINT LeftFinger21
                                {
                                    OFFSET   5.111620   0.000000   0.000000
                                    CHANNELS 3 Zrotation Xrotation Yrotation
                                    JOINT LeftFinger22
                                    {
                                        OFFSET   2.788160   0.000016   0.000000
                                        CHANNELS 3 Zrotation Xrotation Yrotation
                                        End Site
                                        {
                                            OFFSET   2.727660   0.000000   0.000000
                                        }
                                    }
                                }
                            }
                            JOINT LeftFinger3
                            {
                                OFFSET   7.899780   0.000017  -1.078090
                                CHANNELS 3 Zrotation Xrotation Yrotation
                                JOINT LeftFinger31
                                {
                                    OFFSET   4.646930   0.000000   0.000000
                                    CHANNELS 3 Zrotation Xrotation Yrotation
                                    JOINT LeftFinger32
                                    {
                                        OFFSET   2.323470   0.000000   0.000000
                                        CHANNELS 3 Zrotation Xrotation Yrotation
                                        End Site
                                        {
                                            OFFSET   2.273050   0.000000   0.000000
                                        }
                                    }
                                }
                            }
                            JOINT LeftFinger4
                            {
                                OFFSET   7.435090   0.000000  -3.252850
                                CHANNELS 3 Zrotation Xrotation Yrotation
                                JOINT LeftFinger41
                                {
                                    OFFSET   3.717550   0.000000   0.000000
                                    CHANNELS 3 Zrotation Xrotation Yrotation
                                    JOINT LeftFinger42
                                    {
                                        OFFSET   1.858770   0.000000   0.000000
                                        CHANNELS 3 Zrotation Xrotation Yrotation
                                        End Site
                                        {
                                            OFFSET   1.818440   0.000000   0.000000
                                        }
                                    }
                                }
                            }
                        }
                    }
                }
            }
            JOINT RightCollar
            {
                OFFSET  -3.911900  19.017000  -0.467063
                CHANNELS 3 Zrotation Xrotation Yrotation
                JOINT RightShoulder
                {
                    OFFSET -10.383700   0.000019   0.000000
                    CHANNELS 3 Zrotation Xrotation Yrotation
                    JOINT RightElbow
                    {
                        OFFSET -26.662100   0.001175   0.000102
                        CHANNELS 3 Zrotation Xrotation Yrotation
                        JOINT RightWrist
                        {
                            OFFSET -28.869000   0.000016  -0.000079
                            CHANNELS 3 Zrotation Xrotation Yrotation
                            JOINT RightFinger0
                            {
                                OFFSET  -2.044660  -2.323490   3.252850
                                CHANNELS 3 Zrotation Xrotation Yrotation
                                JOINT RightFinger01
                                {
                                    OFFSET  -3.088140   0.000000   0.000000
                                    CHANNELS 3 Zrotation Xrotation Yrotation
                                    JOINT RightFinger02
                                    {
                                        OFFSET  -2.639460   0.000000   0.000000
                                        CHANNELS 3 Zrotation Xrotation Yrotation
                                        End Site
                                        {
                                            OFFSET  -2.582190   0.000000   0.000000
                                        }
                                    }
                                }
                            }
                            JOINT RightFinger1
                            {
                                OFFSET  -8.364480   0.000000   3.252850
                                CHANNELS 3 Zrotation Xrotation Yrotation
                                JOINT RightFinger11
                                {
                                    OFFSET  -4.646930   0.000000   0.000000
                                    CHANNELS 3 Zrotation Xrotation Yrotation
                                    JOINT RightFinger12
                                    {
                                        OFFSET  -2.323470   0.000000   0.000000
                                        CHANNELS 3 Zrotation Xrotation Yrotation
                                        End Site
                                        {
                                            OFFSET  -2.273050   0.000000   0.000000
                                        }
                                    }
                                }
                            }
                            JOINT RightFinger2
                            {
                                OFFSET  -8.364480   0.000000   1.078090
                                CHANNELS 3 Zrotation Xrotation Yrotation
                                JOINT RightFinger21
                                {
                                    OFFSET  -5.111620   0.000000   0.000000
                                    CHANNELS 3 Zrotation Xrotation Yrotation
                                    JOINT RightFinger22
                                    {
                                        OFFSET  -2.788160   0.000000   0.000000
                                        CHANNELS 3 Zrotation Xrotation Yrotation
                                        End Site
                                        {
                                            OFFSET  -2.727660   0.000000   0.000000
                                        }
                                    }
                                }
                            }
                            JOINT RightFinger3
                            {
                                OFFSET  -7.899780   0.000000  -1.078090
                                CHANNELS 3 Zrotation Xrotation Yrotation
                                JOINT RightFinger31
                                {
                                    OFFSET  -4.646930   0.000000   0.000000
                                    CHANNELS 3 Zrotation Xrotation Yrotation
                                    JOINT RightFinger32
                                    {
                                        OFFSET  -2.323470   0.000000   0.000000
                                        CHANNELS 3 Zrotation Xrotation Yrotation
                                        End Site
                                        {
                                            OFFSET  -2.273050   0.000000   0.000000
                                        }
                                    }
                                }
                            }
                            JOINT RightFinger4
                            {
                                OFFSET  -7.435090   0.000000  -3.252850
                                CHANNELS 3 Zrotation Xrotation Yrotation
                                JOINT RightFinger41
                                {
                                    OFFSET  -3.717550   0.000000   0.000000
                                    CHANNELS 3 Zrotation Xrotation Yrotation
                                    JOINT RightFinger42
                                    {
                                        OFFSET  -1.858770   0.000000   0.000000
                                        CHANNELS 3 Zrotation Xrotation Yrotation
                                        End Site
                                        {
                                            OFFSET  -1.818440   0.000000   0.000000
                                        }
                                    }
                                }
                            }
                        }
                    }
                }
            }
        }
    }
    JOINT LeftHip
    {
        OFFSET   9.783040   0.000000   0.000000
        CHANNELS 3 Zrotation Xrotation Yrotation
        JOINT LeftKnee
        {
            OFFSET   0.000032 -41.789100  -0.002222
            CHANNELS 3 Zrotation Xrotation Yrotation
            JOINT LeftAnkle
            {
                OFFSET   0.000087 -41.133200  -0.000135
                CHANNELS 3 Zrotation Xrotation Yrotation
                JOINT LeftToe
                {
                    OFFSET   0.000000  -6.358960  14.674500
                    CHANNELS 3 Zrotation Xrotation Yrotation
                    End Site
                    {
                        OFFSET   0.000000   0.000000   3.913200
                    }
                }
            }
        }
    }
    JOINT RightHip
    {
        OFFSET  -9.783040   0.000000   0.000000
        CHANNELS 3 Zrotation Xrotation Yrotation
        JOINT RightKnee
        {
            OFFSET   0.000047 -41.789100  -0.000896
            CHANNELS 3 Zrotation Xrotation Yrotation
            JOINT RightAnkle
            {
                OFFSET  -0.000117 -41.133300  -0.000248
                CHANNELS 3 Zrotation Xrotation Yrotation
                JOINT RightToe
                {
                    OFFSET   0.000000  -6.358970  14.674500
                    CHANNELS 3 Zrotation Xrotation Yrotation
                    End Site
                    {
                        OFFSET   0.000000   0.000000   3.913200
                    }
                }
            }
        }
    }
}
MOTION
Frames: 4
Frame Time:   0.016667
 -2.180190  89.456600   0.244109  -0.598137  -5.183810   1.365730   0.911150   4.187810  -0.394674   1.858760   8.368680  -0.859731  -1.353590  -0.010775   0.010105  -2.223700  -0.022355   7.622380  -7.327400   0.552744  11.266000 -78.281300   7.969360   0.407596   0.736884   6.618430 -17.312200   7.950060  -5.027610  -0.606226  38.415300  31.029400 -49.441900 -33.117600   0.001877   0.001318 -11.558800   0.001061  -0.001446 -30.526700   0.175243  -0.297186 -24.987400   0.002176   0.000313 -17.492600  -0.010905   0.013043 -28.495600  -3.901840   7.138620 -40.024300  -0.000413   0.001883 -26.656200  -0.001615  -0.000108 -26.998400  -3.714230   7.237840 -28.000600   0.001502   0.001998 -18.648400  -0.005425   0.002262 -26.245500  -4.700850   9.437280 -39.950500  -0.000434   0.001167 -26.607100  -0.001535   0.003963   6.830840   3.411130  10.880600  70.050100  -0.242966  -2.772630   3.107190  -2.048660  19.334900 -15.132100  -0.475177   4.353820 -40.341000  43.839900  80.835400  36.520100  -0.000926  -0.005603  13.260100   0.010148   0.004365  36.077500  -0.222765  -0.306300  29.518400   0.000000   0.001646  20.662900  -0.011689   0.001438  28.808600  -2.959540  -5.363450  43.676500   0.001345  -0.001770  29.088500  -0.001177  -0.001461  29.372900  -4.963460  -8.739900  44.628500   0.011916  -0.002646  29.722600   0.001076  -0.001386  44.804600  -7.112780  -7.105930  67.870200   0.001341   0.006148  45.201600   0.002861   0.003059   3.048690   5.986560   0.663880   0.498636   3.134460  14.054200  -3.234910  -3.692970   0.028826  -0.000000   0.000000  -0.000000   0.915794   6.075240  -2.286300   0.245414   3.505360 -13.382200   0.882187  -4.464570   1.490040   0.000000   0.000000   0.000000
 -2.169810  89.456400   0.244296  -0.597699  -5.206390   1.361650   0.910663   4.201140  -0.383810   1.857130   8.395520  -0.838123  -1.363420  -0.000223   0.010075  -2.239870  -0.000603   7.598250  -7.337000   0.530602  11.253900 -78.293000   7.989130   0.403272   0.728652   6.612340 -17.290400   7.948780  -5.027230  -0.615283  38.426000  31.062000 -49.478200 -33.126300   0.001875   0.001311 -11.563100   0.001056  -0.001453 -30.532100   0.167755  -0.284437 -24.987400   0.002177   0.000312 -17.492500  -0.010905   0.013048 -28.495600  -3.901840   7.138520 -40.017200  -0.000414   0.001880 -26.651400  -0.001616  -0.000110 -26.998300  -3.714230   7.237740 -27.991100   0.001503   0.001996 -18.642100  -0.005430   0.002262 -26.236000  -4.705980   9.451270 -39.937700  -0.000430   0.001164 -26.598500  -0.001534   0.003962   6.859290   3.353340  10.913600  70.040400  -0.186056  -2.796980   3.061580  -2.044880  19.513900 -15.023400  -0.450567   4.276850 -40.306100  43.844100  80.906400  36.509800  -0.000962  -0.005630  13.255000   0.010154   0.004363  36.029600  -0.158444  -0.218888  29.479000   0.000000   0.001647  20.635300  -0.011697   0.001438  28.732400  -2.920810  -5.308190  43.526300   0.001363  -0.001794  28.988500  -0.001170  -0.001481  29.275100  -4.957030  -8.763710  44.462700   0.012038  -0.002612  29.612100   0.001050  -0.001352  44.816100  -7.126630  -7.116780  67.889700   0.001318   0.006205  45.214600   0.002839   0.003011   3.042120   6.009080   0.659213   0.498493   3.133230  14.061400  -3.227370  -3.696710   0.029432  -0.000000   0.000000  -0.000000   0.911229   6.089020  -2.278620   0.241777   3.519830 -13.382400   0.887138  -4.464900   1.492820  -0.000000   0.000000  -0.000000
 -2.152500  89.456200   0.244557  -0.597822  -5.245670   1.347180   0.910453   4.222400  -0.366347   1.855630   8.438340  -0.803423  -1.379870   0.020984   0.010005  -2.266910   0.042696   7.556950  -7.352700   0.506650  11.241800 -78.313800   8.043140   0.386290   0.713745   6.595950 -17.240700   7.947170  -5.024640  -0.628465  38.439300  31.108200 -49.530000 -33.142100   0.001858   0.001290 -11.571000   0.001043  -0.001470 -30.539800   0.155654  -0.263844 -24.987400   0.002181   0.000309 -17.492400  -0.010905   0.013060 -28.495600  -3.901860   7.138430 -40.003400  -0.000414   0.001872 -26.642200  -0.001620  -0.000116 -26.998300  -3.714240   7.237630 -27.981600   0.001507   0.001990 -18.635800  -0.005444   0.002262 -26.221100  -4.717310   9.479640 -39.918600  -0.000418   0.001156 -26.585800  -0.001533   0.003957   6.905490   3.270480  10.973000  70.003700  -0.129144  -2.862690   2.967290  -2.028610  19.956300 -14.767600  -0.415804   4.107660 -40.224500  43.839000  81.038000  36.487500  -0.001041  -0.005690  13.243800   0.010165   0.004354  35.941800  -0.060031  -0.084646  29.407000   0.000000   0.001647  20.584900  -0.011713   0.001437  28.659200  -2.862540  -5.221460  43.200400   0.001399  -0.001841  28.771400  -0.001154  -0.001522  29.089900  -4.943530  -8.806340  44.189200   0.012295  -0.002556  29.430000   0.000991  -0.001318  44.858500  -7.154070  -7.132650  67.957500   0.001280   0.006263  45.259700   0.002802   0.002944   3.031980   6.048830   0.649943   0.497600   3.131860  14.078400  -3.214790  -3.704660   0.033675   0.000000   0.000000  -0.000000   0.905258   6.117960  -2.271010   0.234000   3.536830 -13.382600   0.896959  -4.465210   1.506560   0.000000   0.000000   0.000000
 -2.138760  89.456600   0.244670  -0.601295  -5.280770   1.319440   0.911419   4.236890  -0.353160   1.856730   8.467520  -0.777268  -1.394150   0.045357   0.009904  -2.292220   0.091578   7.520970  -7.364020   0.504531  11.247200 -78.330700   8.135910   0.353226   0.703636   6.568920 -17.173500   7.950220  -4.995350  -0.635882  38.438700  31.129900 -49.555500 -33.161800   0.001813   0.001252 -11.580900   0.001021  -0.001490 -30.543900   0.145541  -0.246666 -24.987500   0.002188   0.000302 -17.492200  -0.010908   0.013079 -28.495600  -3.901890   7.138450 -39.987400  -0.000413   0.001859 -26.631600  -0.001625  -0.000126 -26.998100  -3.714240   7.237660 -27.983400   0.001512   0.001982 -18.637000  -0.005466   0.002261 -26.211100  -4.736990   9.523190 -39.909300  -0.000399   0.001141 -26.579600  -0.001533   0.003951   6.946810   3.235520  11.036000  69.928200  -0.135690  -2.969460   2.830020  -1.940230  20.595900 -14.398300  -0.399793   3.881590 -40.086200  43.782500  81.117200  36.467800  -0.001151  -0.005778  13.233900   0.010174   0.004335  35.852200  -0.002369  -0.004821  29.333700   0.000000   0.001644  20.533600  -0.011732   0.001434  28.664400  -2.832610  -5.168130  42.740600   0.001447  -0.001904  28.465200  -0.001128  -0.001577  28.879100  -4.924690  -8.848530  43.983200   0.012646  -0.002503  29.292800   0.000906  -0.001326  44.896600  -7.176910  -7.141640  68.018900   0.001242   0.006249  45.300600   0.002767   0.002917   3.025460   6.086000   0.638657   0.494333   3.134490  14.103800  -3.204720  -3.715000   0.045258  -0.000000   0.000000   0.000000   0.904978   6.157760  -2.277580   0.225202   3.538600 -13.377300   0.907486  -4.463840   1.537250  -0.000000   0.000000   0.000000
